<?xml version="1.0" encoding="UTF-8"?>
<svg version="1.1" xmlns="http://www.w3.org/2000/svg" width="1024" height="1024">
<path d="M0 0 C337.92 0 675.84 0 1024 0 C1024 337.92 1024 675.84 1024 1024 C686.08 1024 348.16 1024 0 1024 C0 686.08 0 348.16 0 0 Z " fill="#101010" transform="translate(0,0)"/>
<path d="M0 0 C0.86602341 0.00359528 1.73204681 0.00719055 2.62431335 0.01089478 C3.98515549 0.01067574 3.98515549 0.01067574 5.37348938 0.01045227 C8.38737843 0.01115176 11.40120651 0.01894582 14.41508484 0.02676392 C16.49873826 0.02862797 18.58239212 0.03005193 20.66604614 0.03105164 C26.16191305 0.03487783 31.65775372 0.04470897 37.15361023 0.05575562 C42.75704086 0.06596757 48.36047572 0.07054879 53.96391296 0.07559204 C64.96717973 0.08633115 75.97042698 0.10340877 86.97367859 0.12442017 C89.1012174 4.84005589 91.21479515 9.53480086 92.97807312 14.40151978 C93.4921447 15.81305832 93.4921447 15.81305832 94.01660156 17.25311279 C94.37626511 18.25091766 94.73592865 19.24872253 95.10649109 20.27676392 C95.49576279 21.34868988 95.88503448 22.42061584 96.28610229 23.52502441 C97.56017922 27.0361659 98.82952517 30.54899632 100.09867859 34.06192017 C100.99323796 36.53099258 101.88801654 38.99998559 102.78300476 41.46890259 C105.51875106 49.01874914 108.24673391 56.57139095 110.97367859 64.12442017 C111.59191498 65.83607361 111.59191498 65.83607361 112.22264099 67.58230591 C117.82376079 83.09008913 123.4060731 98.60457478 128.97367859 114.12442017 C129.3201947 115.09006897 129.66671082 116.05571777 130.02372742 117.05062866 C143.41852123 154.38229886 143.41852123 154.38229886 149.60453796 172.50942993 C151.78135241 178.83282806 154.06625403 185.11041389 156.40727234 191.37442017 C156.70657654 192.17565811 157.00588074 192.97689606 157.31425476 193.80241394 C158.80426927 197.7853662 160.30213581 201.76517481 161.81010437 205.74136353 C162.3555732 207.19064157 162.90098607 208.63994069 163.44633484 210.08926392 C163.70208786 210.75671631 163.95784088 211.4241687 164.22134399 212.11184692 C165.28305407 214.94344313 165.97367859 217.0707899 165.97367859 220.12442017 C166.63367859 220.12442017 167.29367859 220.12442017 167.97367859 220.12442017 C168.17538414 219.02242279 168.17538414 219.02242279 168.38116455 217.89816284 C168.91379388 215.40475912 169.58977663 213.13859158 170.4539032 210.74453735 C170.75684799 209.9 171.05979279 209.05546265 171.37191772 208.18533325 C171.86894951 206.8171344 171.86894951 206.8171344 172.37602234 205.42129517 C172.89909721 203.96898499 172.89909721 203.96898499 173.43273926 202.48733521 C174.58860702 199.28171338 175.74981532 196.07805472 176.91117859 192.87442017 C177.73003858 190.6072308 178.54872061 188.33997714 179.36723328 186.07266235 C185.11889876 170.15937146 190.95989121 154.27973856 196.81944275 138.40594482 C203.45090248 120.42471856 209.89313342 102.3788753 216.28617859 84.31192017 C216.52155838 83.64673622 216.75693817 82.98155228 216.99945068 82.29621124 C217.93754047 79.64498407 218.87551187 76.99371502 219.81347084 74.34244156 C220.27198701 73.04638116 220.73051164 71.75032375 221.18904495 70.45426941 C221.64031367 69.17873616 222.0915544 67.90319302 222.54276657 66.62763977 C226.48365347 55.4884747 230.45819715 44.36190302 234.47367859 33.24942017 C234.72163177 32.56213837 234.96958496 31.87485657 235.22505188 31.16674805 C237.8610046 23.86406085 240.53704723 16.57669264 243.25492859 9.30410767 C243.51157288 8.61583893 243.76821716 7.92757019 244.03263855 7.21844482 C245.85381684 2.36414366 245.85381684 2.36414366 246.97367859 0.12442017 C277.33367859 0.12442017 307.69367859 0.12442017 338.97367859 0.12442017 C338.97367859 6.72442017 338.97367859 13.32442017 338.97367859 20.12442017 C336.97305359 20.66067017 334.97242859 21.19692017 332.91117859 21.74942017 C325.3598502 24.09123583 320.86169958 26.60011431 317.09867859 33.62442017 C310.91132401 52.87396774 314.83404405 78.18023533 315.69580269 98.19874191 C315.92937823 103.63329438 316.1506609 109.06835817 316.37431335 114.50332642 C316.42260127 115.66927023 316.47088919 116.83521404 316.52064037 118.03648949 C317.12324327 132.6348131 317.67535069 147.23506152 318.22758484 161.83535767 C318.28143853 163.25815838 318.33529252 164.68095908 318.3891468 166.10375977 C318.63455108 172.58963706 318.8794275 179.07553406 319.12370676 185.56145382 C319.37191259 192.15149835 319.62110191 198.74150393 319.87187195 205.33145142 C320.12037504 211.86191158 320.36763871 218.39241722 320.61334074 224.92298341 C320.74538915 228.43247703 320.87792162 231.94195059 321.01172256 235.45137787 C321.4986661 248.23684299 321.98386453 261.02041095 322.24272156 273.81289673 C322.27026536 275.09629031 322.27026536 275.09629031 322.29836559 276.40561104 C322.37723379 280.14150961 322.44367969 283.87646886 322.47869873 287.61303711 C322.68354261 298.81748514 323.62187304 309.9063964 331.97367859 318.12442017 C338.27756578 323.7376717 345.86847036 324.64366097 353.97367859 326.12442017 C353.97367859 332.72442017 353.97367859 339.32442017 353.97367859 346.12442017 C350.28063311 346.86302926 347.5270843 347.24981824 343.86143494 347.25140381 C342.3513662 347.25563354 342.3513662 347.25563354 340.81079102 347.25994873 C339.71760056 347.2579245 338.6244101 347.25590027 337.49809265 347.2538147 C336.33829391 347.25556702 335.17849518 347.25731934 333.98355103 347.25912476 C330.15211997 347.26352435 326.3207351 347.26061267 322.48930359 347.25723267 C319.83083539 347.25790606 317.1723686 347.25887477 314.51390076 347.26013184 C308.94563801 347.26194918 303.37738854 347.25955756 297.80912781 347.25479126 C291.3646502 347.24933878 284.92020418 347.25112017 278.47572732 347.25661767 C272.94359448 347.26114844 267.41147117 347.26179984 261.87933707 347.259179 C258.57451757 347.2576174 255.26971627 347.2578103 251.96489716 347.26071548 C248.2871381 347.26323974 244.60944082 347.25940514 240.9316864 347.2538147 C239.83039902 347.25583893 238.72911163 347.25786316 237.5944519 347.25994873 C236.59901871 347.25712891 235.60358551 347.25430908 234.57798767 347.25140381 C233.27279112 347.25083827 233.27279112 347.25083827 231.94122696 347.25026131 C229.97367859 347.12442017 229.97367859 347.12442017 228.97367859 346.12442017 C228.88716248 344.70871893 228.86662955 343.28882516 228.87602234 341.87051392 C228.879245 341.01651001 228.88246765 340.1625061 228.88578796 339.28262329 C228.89416687 338.38479126 228.90254578 337.48695923 228.91117859 336.56192017 C228.91569031 335.66022095 228.92020203 334.75852173 228.92485046 333.82949829 C228.93667634 331.59440703 228.95315639 329.3594458 228.97367859 327.12442017 C232.38183575 326.14022346 235.78121122 325.17328974 239.21977234 324.30020142 C246.56971857 322.31202747 252.16097361 320.18408259 256.97367859 314.12442017 C261.27243344 305.58966355 260.34323101 295.61103353 260.21586609 286.33145142 C260.20269631 284.59332462 260.19049717 282.85519024 260.17921448 281.11705017 C260.04652563 264.15729017 259.63955729 247.20219355 259.16596222 230.24905014 C259.04959972 226.03419812 258.94007337 221.81916715 258.82963562 217.60415649 C258.41838702 201.99234679 257.98302217 186.38122804 257.5382843 170.77033997 C257.37359514 164.9868423 257.21153672 159.20327132 257.04981041 153.41969013 C256.9205196 148.81171988 256.78639298 144.20392507 256.64840508 139.59620762 C256.03914318 119.10069086 255.86326384 98.62868107 255.97367859 78.12442017 C255.31367859 78.12442017 254.65367859 78.12442017 253.97367859 78.12442017 C253.71804138 79.39688599 253.46240417 80.66935181 253.19902039 81.9803772 C252.01280389 87.3006888 250.25160667 92.32096081 248.36820984 97.42910767 C248.01247894 98.40869446 247.65674805 99.38828125 247.29023743 100.39755249 C246.52547336 102.50243615 245.75833236 104.60645745 244.98902893 106.70968628 C242.92721815 112.34863283 240.88461709 117.99453322 238.84086609 123.64004517 C238.21911751 125.35588303 238.21911751 125.35588303 237.58480835 127.10638428 C233.77882375 137.62608434 230.07831855 148.18067182 226.41117859 158.74942017 C225.80141362 160.50314477 225.19146795 162.25680654 224.5813446 164.01040649 C224.27734238 164.88416428 223.97334015 165.75792206 223.66012573 166.65815735 C223.20238518 167.97370354 223.20238518 167.97370354 222.73539734 169.31582642 C222.43003555 170.19362259 222.12467377 171.07141876 221.81005859 171.97581482 C210.17051137 205.42953843 198.15683699 238.69828314 185.42485046 271.75332642 C183.32220696 277.21302903 181.23294287 282.677758 179.14656067 288.14369202 C177.45910795 292.55983654 175.76456537 296.97323611 174.06809998 301.38592529 C173.27158089 303.46046701 172.47725331 305.53585185 171.68540955 307.61218262 C166.67105868 320.7476282 161.18785388 333.51017546 154.97367859 346.12442017 C152.66367859 346.12442017 150.35367859 346.12442017 147.97367859 346.12442017 C143.81898123 335.99032728 139.99338636 325.77059249 136.34022522 315.44592285 C131.43327458 301.59223341 126.39530928 287.79524545 121.16117859 274.06192017 C115.83046051 260.07037473 110.59165029 246.04731908 105.41117859 231.99942017 C105.05138916 231.02394226 104.69159973 230.04846436 104.32090759 229.04342651 C102.89086242 225.16596647 101.46094694 221.28845871 100.03144836 217.41079712 C96.98183725 209.14050801 93.91704795 200.87591227 90.84544373 192.61376953 C90.04365434 190.45702924 89.24225321 188.30014506 88.44096375 186.14321899 C86.06395669 179.7453139 83.68466492 173.34827282 81.30180359 166.95254517 C76.73305041 154.67341868 72.26475419 142.36424664 67.88554382 130.01626587 C62.76892235 115.64963094 57.36812262 101.38854821 51.97367859 87.12442017 C50.76440482 94.07209506 50.57990778 101.05290646 50.29008484 108.08926392 C50.22990595 109.4967288 50.1695008 110.90418404 50.10888672 112.31163025 C49.94668624 116.10576777 49.78953896 119.90009877 49.63373566 123.69450378 C49.53600018 126.0662495 49.43683683 128.43793155 49.33726501 130.80960083 C48.25496236 156.63326725 47.36139227 182.46042207 46.6204071 208.29605103 C46.54832624 210.78572346 46.4759871 213.27538843 46.40336609 215.76504517 C46.3516198 217.54621735 46.3516198 217.54621735 46.29882812 219.3633728 C46.1040856 225.77195092 45.82798721 232.16618035 45.44242859 238.56582642 C44.75640393 250.33304128 44.67848563 262.11411335 44.62358093 273.89859009 C44.60685348 276.52725981 44.57935053 279.15588113 44.54154968 281.78433228 C44.48683179 285.63100043 44.46493879 289.4766345 44.45024109 293.32363892 C44.41623703 295.07531624 44.41623703 295.07531624 44.38154602 296.86238098 C44.39986633 303.92861589 45.29786236 308.68502171 49.97367859 314.12442017 C57.0669373 320.71286667 65.65164076 322.79270048 74.97367859 324.12442017 C74.97367859 331.38442017 74.97367859 338.64442017 74.97367859 346.12442017 C9.8554432 347.22262409 9.8554432 347.22262409 -10.52632141 347.24942017 C-11.83786194 347.25393188 -13.14940247 347.2584436 -14.50068665 347.26309204 C-15.65383362 347.26115845 -16.80698059 347.25922485 -17.99507141 347.25723267 C-19.44043274 347.25554077 -19.44043274 347.25554077 -20.91499329 347.2538147 C-23.02632141 347.12442017 -23.02632141 347.12442017 -24.02632141 346.12442017 C-24.24345364 339.39332094 -23.72678844 332.81638199 -23.02632141 326.12442017 C-22.16651672 325.83824829 -21.30671204 325.55207642 -20.42085266 325.25723267 C-18.74055969 324.69649048 -18.74055969 324.69649048 -17.02632141 324.12442017 C-15.48524719 323.62555298 -15.48524719 323.62555298 -13.91304016 323.11660767 C-6.4574267 320.51306011 0.0691669 317.52576335 4.97367859 311.12442017 C7.97575621 304.54240023 8.54427332 298.67579843 8.81742859 291.49551392 C8.87156921 290.34741241 8.92570984 289.19931091 8.98149109 288.01641846 C9.1582014 284.19870779 9.31600768 280.3804609 9.47367859 276.56192017 C9.59422951 273.8377663 9.71866146 271.11379255 9.84281921 268.38980103 C10.171398 261.11796085 10.48076974 253.8453851 10.78617859 246.57254028 C10.97031599 242.19157467 11.15891887 237.81080949 11.34867859 233.43008423 C12.01747736 217.97632533 12.66966451 202.52194038 13.30887985 187.06693077 C13.75786154 176.21911181 14.21896685 165.37187268 14.69077301 154.52502251 C14.79372957 152.1577769 14.89646129 149.79052164 14.99913025 147.42326355 C15.54792512 134.77412557 15.54792512 134.77412557 15.78788757 129.31658936 C17.51302551 91.01596149 17.51302551 91.01596149 18.22367859 52.68692017 C18.24430359 51.3675647 18.26492859 50.04820923 18.28617859 48.68887329 C18.37570575 37.41101812 18.37570575 37.41101812 12.91117859 27.87442017 C6.52128693 24.0676762 0.35658406 22.0223411 -7.02632141 21.12442017 C-7.05520288 17.8119383 -7.0730794 14.49948849 -7.08882141 11.18692017 C-7.09720032 10.24139282 -7.10557922 9.29586548 -7.11421204 8.32168579 C-7.11904602 6.97300415 -7.11904602 6.97300415 -7.12397766 5.59707642 C-7.13183289 4.3480957 -7.13183289 4.3480957 -7.1398468 3.07388306 C-6.88884413 -1.2363457 -3.5428621 0.00621291 0 0 Z " fill="#FDFDFD" transform="translate(511.0263214111328,314.8755798339844)"/>
<path d="M0 0 C5.53333632 -0.0972626 5.53333632 -0.0972626 7.51558876 1.44966316 C8.07318886 2.43362068 8.07318886 2.43362068 8.6420536 3.43745613 C9.08532997 4.18100349 9.52860634 4.92455086 9.98531532 5.69062996 C10.43664833 6.51200447 10.88798134 7.33337898 11.3529911 8.17964363 C12.38801929 9.93699714 13.42453696 11.69347406 14.4623661 13.44917488 C14.99539345 14.37166023 15.52842079 15.29414558 16.07760048 16.24458504 C18.79217514 20.86659012 21.70413877 25.35934344 24.6029911 29.86714363 C25.78873454 31.72728068 26.97362431 33.58796217 28.1576786 35.44917488 C28.74774696 36.37552742 29.33781532 37.30187996 29.94576454 38.25630379 C31.70971122 41.02594171 33.47292058 43.79604733 35.2358036 46.56636238 C35.81217567 47.47208992 36.38854774 48.37781746 36.98238564 49.31099129 C38.14767726 51.14253635 39.31271567 52.97424255 40.47750282 54.80610847 C43.38745556 59.38167432 46.30237135 63.95392062 49.2279911 68.51948738 C55.82385188 78.82540485 62.28708892 89.19864344 68.62301064 99.66646004 C72.22275407 105.60628844 75.87718385 111.50563579 79.6029911 117.36714363 C86.45281109 128.14599542 93.1183032 139.03708038 99.80123329 149.91987801 C113.68171762 172.50292651 127.72211861 194.98595357 141.98801613 217.32756233 C143.80389663 220.17361117 145.61690253 223.021474 147.42916298 225.86982918 C148.04980629 226.84526176 148.6704496 227.82069435 149.30990028 228.8256855 C149.77787025 229.56124168 150.24584023 230.29679787 150.7279911 231.05464363 C150.75156269 211.18886365 150.76908748 191.32308658 150.77980328 171.45729542 C150.78491551 162.2290792 150.79185887 153.00087177 150.80343056 143.77266121 C150.8135352 135.71041237 150.81988117 127.64816991 150.8220796 119.58591491 C150.82336054 115.33425372 150.82627343 111.08261073 150.83372116 106.83095551 C150.85185729 95.90492253 150.82269208 84.98029629 150.7279911 74.05464363 C150.71878647 72.85348372 150.71878647 72.85348372 150.70939589 71.62805796 C150.67020566 66.77101509 150.60734364 61.91519755 150.51284873 57.0589062 C150.48597364 55.54862218 150.46537828 54.03821061 150.45170033 52.52774942 C150.4351476 40.69006203 150.4351476 40.69006203 145.7279911 30.05464363 C139.84402521 24.96964981 132.38642554 22.57727712 124.7904911 21.49214363 C121.7279911 21.05464363 121.7279911 21.05464363 119.7279911 19.05464363 C119.48507118 17.19111824 119.48507118 17.19111824 119.49752235 14.95698738 C119.49945595 14.15583504 119.50138954 13.35468269 119.50338173 12.52925301 C119.51562782 11.69200691 119.52787392 10.85476082 119.5404911 9.99214363 C119.5414579 8.73047371 119.5414579 8.73047371 119.54244423 7.44331551 C119.58775927 1.19487547 119.58775927 1.19487547 120.7279911 0.05464363 C123.57826191 -0.04590938 126.4043362 -0.08151174 129.25509071 -0.0747509 C130.59648361 -0.07737938 130.59648361 -0.07737938 131.96497536 -0.08006096 C134.93678129 -0.0844813 137.90852826 -0.0815406 140.88033485 -0.07816887 C142.93677723 -0.07884192 144.99321953 -0.07981195 147.04966164 -0.08106804 C151.36651807 -0.08254531 155.68335386 -0.08038975 160.0002079 -0.07572746 C165.54335838 -0.07003373 171.08646041 -0.07330675 176.62960911 -0.07929993 C180.87855331 -0.0829078 185.12748597 -0.08176584 189.37643051 -0.07917213 C191.42064418 -0.07850331 193.46485889 -0.07932975 195.50907135 -0.08165169 C198.36324159 -0.08418151 201.21733264 -0.08033274 204.07149696 -0.0747509 C205.34875648 -0.07778725 205.34875648 -0.07778725 206.65181923 -0.08088493 C212.49946479 -0.05961953 212.49946479 -0.05961953 214.7279911 1.05464363 C214.7279911 6.99464363 214.7279911 12.93464363 214.7279911 19.05464363 C210.7679911 20.53964363 210.7679911 20.53964363 206.7279911 22.05464363 C199.28647502 25.13243782 193.06900793 28.46091853 189.83527815 36.1877299 C187.6974559 42.93998494 187.30027221 49.14027207 187.33599281 56.1926899 C187.33005155 57.3777031 187.32411029 58.56271631 187.31798899 59.78363901 C187.30457362 63.0463669 187.30437167 66.30877686 187.3099103 69.57151735 C187.31260532 73.10058647 187.29797526 76.62959019 187.28547096 80.15863228 C187.26613092 86.26661357 187.25751176 92.37453325 187.25617027 98.48254395 C187.25412521 107.32553334 187.23462214 116.16841875 187.21077235 125.01137311 C187.17240943 139.37629022 187.14657683 153.74120026 187.12935829 168.1061573 C187.11263033 182.02836801 187.09244996 195.95056316 187.06588173 209.87275887 C187.0634316 211.15883194 187.0634316 211.15883194 187.06093197 212.47088628 C187.04294977 221.83925291 187.02358758 231.20761594 187.00262833 240.57597637 C187.00078691 241.40031423 186.99894549 242.22465209 186.99704827 243.07396989 C186.98966744 246.37020057 186.98227311 249.6664312 186.97470446 252.96266145 C186.95262426 262.59469748 186.93479577 272.22671878 186.92475165 281.85877527 C186.91835038 287.90268991 186.90878716 293.9465938 186.8967831 299.99049991 C186.8900282 303.4733689 186.88492625 306.95622056 186.88419724 310.43909645 C186.8826186 314.22262481 186.87501807 318.00609678 186.86602211 321.78961372 C186.86709036 322.87912628 186.86815861 323.96863883 186.86925924 325.09116691 C186.84557108 331.79641273 186.44995806 338.38823894 185.7279911 345.05464363 C172.57555774 348.44964094 149.00422325 351.1203215 136.80416298 344.45796394 C132.51399959 340.12031559 130.70851828 334.70989645 128.83053017 329.00581551 C126.89767661 323.83213663 123.82342825 319.37186547 120.8529911 314.74214363 C119.6645386 312.80370791 118.48096253 310.86227426 117.30220985 308.91792488 C116.71230263 307.95064461 116.1223954 306.98336433 115.5146122 305.98677254 C113.73549126 303.06695257 111.95970624 300.14513102 110.18502235 297.22261238 C104.08618896 287.18185009 97.95624846 277.1619188 91.76290321 267.17915535 C87.40109537 260.14796578 83.06185029 253.1030896 78.7279911 246.05464363 C76.06181953 241.72100551 73.39503724 237.38774357 70.7279911 233.05464363 C70.15016884 232.1155616 69.57234657 231.17647957 68.97701454 230.20894051 C62.436673 219.58616616 55.81695275 209.01917866 49.10518837 198.50386238 C39.89625437 184.06527354 30.82152281 169.54232165 21.92379189 154.90986824 C17.5151319 147.67330085 13.00943523 140.4981785 8.50338173 133.32197762 C5.26154555 128.14798399 2.05242512 122.95782767 -1.09622765 117.72651863 C-2.0227816 116.18870735 -2.0227816 116.18870735 -2.96805382 114.61982918 C-4.130903 112.68426521 -5.28899062 110.74582867 -6.44119835 108.80391121 C-7.23916832 107.47589485 -7.23916832 107.47589485 -8.0532589 106.12104988 C-8.50765343 105.35736092 -8.96204796 104.59367195 -9.43021202 103.8068409 C-12.16264848 99.7237608 -15.22306384 95.90456994 -18.2720089 92.05464363 C-18.83134768 145.7421741 -19.37382968 199.43126609 -19.44925499 253.12202644 C-19.45511113 257.26902368 -19.46553214 261.4159685 -19.48001671 265.56294441 C-19.49655688 270.42783635 -19.50292156 275.29263578 -19.50120544 280.15755463 C-19.50203689 281.9207342 -19.50612813 283.68391605 -19.51389694 285.4470787 C-20.00254612 301.21047922 -20.00254612 301.21047922 -15.7095089 316.05464363 C-7.28792717 322.96465941 3.3001046 323.50977156 13.7279911 325.05464363 C13.7279911 331.98464363 13.7279911 338.91464363 13.7279911 346.05464363 C-20.5920089 346.05464363 -54.9120089 346.05464363 -90.2720089 346.05464363 C-90.2720089 339.45464363 -90.2720089 332.85464363 -90.2720089 326.05464363 C-88.2095089 325.68339363 -86.1470089 325.31214363 -84.0220089 324.92964363 C-76.00048385 323.16783094 -67.62742683 321.17353143 -62.22904015 314.54683113 C-58.65627862 308.72518172 -57.14976055 304.20661324 -57.11379051 297.35592842 C-57.10885253 296.67038775 -57.10391456 295.98484708 -57.09882694 295.27853245 C-57.08343087 292.97286689 -57.07508294 290.6672293 -57.06668663 288.3615284 C-57.05710378 286.70789027 -57.04709346 285.05425457 -57.03668785 283.40062141 C-57.00952932 278.8819304 -56.98854143 274.36322902 -56.96868587 269.84450078 C-56.94665949 265.04896537 -56.91930138 260.25346009 -56.89262962 255.45794868 C-56.84822073 247.33418888 -56.80754412 239.21041721 -56.76932335 231.08662605 C-56.7307449 222.88999307 -56.68933083 214.69338255 -56.64432335 206.4967823 C-56.63888114 205.50515103 -56.63343894 204.51351976 -56.62783182 203.49183905 C-56.62239945 202.50228008 -56.61696707 201.51272111 -56.61137009 200.49317551 C-56.4100363 163.80550195 -56.23162161 127.11732641 -56.18816376 90.42907715 C-56.18468056 87.53210224 -56.17906412 84.6351451 -56.17142105 81.73817825 C-56.16126747 77.79540531 -56.15958903 73.85265483 -56.15897179 69.90986824 C-56.15331923 68.225439 -56.15331923 68.225439 -56.14755249 66.5069809 C-55.70378927 48.97075293 -55.70378927 48.97075293 -62.56497765 33.38276863 C-69.52630675 26.43933498 -81.1302834 23.6665652 -90.2720089 21.05464363 C-90.2720089 14.45464363 -90.2720089 7.85464363 -90.2720089 1.05464363 C-78.936405 0.92377323 -67.60079679 0.79329283 -56.26518059 0.6634922 C-51.00117783 0.60320029 -45.73717711 0.54273985 -40.47318077 0.48188972 C-35.38980621 0.4231338 -30.30642667 0.36482652 -25.22304344 0.30682564 C-23.28705729 0.28465828 -21.35107297 0.26233135 -19.41509056 0.23983955 C-16.69617741 0.20827955 -13.97725825 0.17729534 -11.25833702 0.14644051 C-10.06718285 0.1324144 -10.06718285 0.1324144 -8.85196495 0.11810493 C-7.37094992 0.10152152 -5.88990488 0.0873775 -4.40884018 0.07606888 C-2.93908194 0.06133214 -1.4694072 0.03534042 0 0 Z " fill="#FDFDFD" transform="translate(259.272008895874,314.94535636901855)"/>
<path d="M0 0 C0.33 0 0.66 0 1 0 C1.33 6.27 1.66 12.54 2 19 C4.475 19.99 4.475 19.99 7 21 C7 21.33 7 21.66 7 22 C5.02 22 3.04 22 1 22 C-1.43577332 18.23562305 -1.23476404 14.83305537 -1.1875 10.4375 C-1.1865332 9.42913086 -1.1865332 9.42913086 -1.18554688 8.40039062 C-1.1581579 5.33586829 -0.9757613 2.9272839 0 0 Z " fill="#040404" transform="translate(378,315)"/>
<path d="M0 0 C0.33 0 0.66 0 1 0 C1.33 2.97 1.66 5.94 2 9 C2.33 9 2.66 9 3 9 C3.1875 11.375 3.1875 11.375 3 14 C2.01 14.66 1.02 15.32 0 16 C0 10.72 0 5.44 0 0 Z " fill="#393838" transform="translate(558,480)"/>
<path d="M0 0 C0.99 0.495 0.99 0.495 2 1 C2 1.66 2 2.32 2 3 C2.99 3 3.98 3 5 3 C4.67 4.65 4.34 6.3 4 8 C3.34 8 2.68 8 2 8 C1.34 5.36 0.68 2.72 0 0 Z " fill="#070707" transform="translate(675,527)"/>
</svg>
